<mxfile host="app.diagrams.net" modified="2024-04-08T14:35:55.563Z" agent="Mozilla/5.0 (Windows NT 10.0; Win64; x64) AppleWebKit/537.36 (KHTML, like Gecko) Chrome/123.0.0.0 Safari/537.36" etag="meyeyFQDoX06Ookp7579" version="24.2.2" type="github">
  <diagram id="_KsFbbM1c4Vf_MlxP51w" name="Page-1">
    <mxGraphModel dx="1434" dy="746" grid="1" gridSize="10" guides="1" tooltips="1" connect="1" arrows="1" fold="1" page="1" pageScale="1" pageWidth="850" pageHeight="1100" math="0" shadow="0">
      <root>
        <mxCell id="0" />
        <mxCell id="1" parent="0" />
        <mxCell id="yMU-ZAaQUFapcs6r5aY3-1" value="Client&#39;s Side" style="fontStyle=0;verticalAlign=top;align=center;spacingTop=-2;fillColor=none;rounded=0;whiteSpace=wrap;html=1;strokeColor=#00882B;strokeWidth=2;dashed=1;container=1;collapsible=0;expand=0;recursiveResize=0;" parent="1" vertex="1">
          <mxGeometry x="177" y="40" width="180" height="500" as="geometry" />
        </mxCell>
        <mxCell id="yMU-ZAaQUFapcs6r5aY3-2" value="Users" style="outlineConnect=0;fontColor=#232F3E;gradientColor=none;strokeColor=#232F3E;fillColor=#ffffff;dashed=0;verticalLabelPosition=bottom;verticalAlign=top;align=center;html=1;fontSize=12;fontStyle=0;aspect=fixed;shape=mxgraph.aws4.resourceIcon;resIcon=mxgraph.aws4.users;" parent="yMU-ZAaQUFapcs6r5aY3-1" vertex="1">
          <mxGeometry x="47" y="40" width="60" height="60" as="geometry" />
        </mxCell>
        <mxCell id="yMU-ZAaQUFapcs6r5aY3-3" value="Server Side" style="fontStyle=0;verticalAlign=top;align=center;spacingTop=-2;fillColor=none;rounded=0;whiteSpace=wrap;html=1;strokeColor=#258619;strokeWidth=2;dashed=1;container=1;collapsible=0;expand=0;recursiveResize=0;fontColor=#d42121;" parent="1" vertex="1">
          <mxGeometry x="410" y="38" width="600" height="502" as="geometry" />
        </mxCell>
        <mxCell id="yMU-ZAaQUFapcs6r5aY3-29" style="edgeStyle=orthogonalEdgeStyle;rounded=0;orthogonalLoop=1;jettySize=auto;html=1;" parent="yMU-ZAaQUFapcs6r5aY3-3" source="1e3A0mVhbscutXm83VHQ-1" target="yMU-ZAaQUFapcs6r5aY3-6" edge="1">
          <mxGeometry relative="1" as="geometry">
            <mxPoint x="125" y="70" as="sourcePoint" />
          </mxGeometry>
        </mxCell>
        <mxCell id="yMU-ZAaQUFapcs6r5aY3-6" value="XML_Converter" style="outlineConnect=0;fontColor=#232F3E;gradientColor=none;strokeColor=#ffffff;fillColor=#232F3E;dashed=0;verticalLabelPosition=middle;verticalAlign=bottom;align=center;html=1;whiteSpace=wrap;fontSize=10;fontStyle=1;spacing=3;shape=mxgraph.aws4.productIcon;prIcon=mxgraph.aws4.api_gateway;" parent="yMU-ZAaQUFapcs6r5aY3-3" vertex="1">
          <mxGeometry x="160" y="13" width="80" height="110" as="geometry" />
        </mxCell>
        <mxCell id="yMU-ZAaQUFapcs6r5aY3-11" value="DSC Lite" style="outlineConnect=0;dashed=0;verticalLabelPosition=bottom;verticalAlign=top;align=center;html=1;shape=mxgraph.aws3.worker;fillColor=#D9A741;gradientColor=none;" parent="yMU-ZAaQUFapcs6r5aY3-3" vertex="1">
          <mxGeometry x="160" y="342" width="60" height="63" as="geometry" />
        </mxCell>
        <mxCell id="x4FNr3anz5mZ0z94SjzF-6" style="edgeStyle=orthogonalEdgeStyle;rounded=0;orthogonalLoop=1;jettySize=auto;html=1;startArrow=openThin;startFill=0;entryX=0.5;entryY=1;entryDx=0;entryDy=0;" parent="yMU-ZAaQUFapcs6r5aY3-3" source="1e3A0mVhbscutXm83VHQ-5" target="1e3A0mVhbscutXm83VHQ-4" edge="1">
          <mxGeometry relative="1" as="geometry">
            <mxPoint x="350" y="242" as="targetPoint" />
            <Array as="points" />
            <mxPoint x="350" y="292" as="sourcePoint" />
          </mxGeometry>
        </mxCell>
        <mxCell id="x4FNr3anz5mZ0z94SjzF-15" style="edgeStyle=orthogonalEdgeStyle;rounded=0;orthogonalLoop=1;jettySize=auto;html=1;startArrow=openThin;startFill=0;entryX=0.5;entryY=0;entryDx=0;entryDy=0;" parent="yMU-ZAaQUFapcs6r5aY3-3" source="1e3A0mVhbscutXm83VHQ-2" target="1e3A0mVhbscutXm83VHQ-4" edge="1">
          <mxGeometry relative="1" as="geometry">
            <mxPoint x="123" y="211.5" as="sourcePoint" />
            <mxPoint x="511.06961087222953" y="216.3159150126711" as="targetPoint" />
            <Array as="points">
              <mxPoint x="354" y="142" />
              <mxPoint x="354" y="142" />
            </Array>
          </mxGeometry>
        </mxCell>
        <mxCell id="xUTsG6EXteNMuKocuy_s-10" value="Internet" style="image;aspect=fixed;perimeter=ellipsePerimeter;html=1;align=center;shadow=0;dashed=0;spacingTop=3;image=img/lib/active_directory/internet_cloud.svg;" parent="yMU-ZAaQUFapcs6r5aY3-3" vertex="1">
          <mxGeometry x="540" y="150" width="123.81" height="78" as="geometry" />
        </mxCell>
        <mxCell id="Fcgo-apEPi93iQy3yleW-4" style="edgeStyle=orthogonalEdgeStyle;rounded=0;orthogonalLoop=1;jettySize=auto;html=1;startArrow=openThin;startFill=0;exitX=1;exitY=0.5;exitDx=0;exitDy=0;strokeColor=#2b0d0d;entryX=0;entryY=0.5;entryDx=0;entryDy=0;" parent="yMU-ZAaQUFapcs6r5aY3-3" source="1e3A0mVhbscutXm83VHQ-4" edge="1" target="xUTsG6EXteNMuKocuy_s-10">
          <mxGeometry relative="1" as="geometry">
            <mxPoint x="570" y="222" as="targetPoint" />
            <Array as="points">
              <mxPoint x="450" y="214" />
              <mxPoint x="450" y="212" />
              <mxPoint x="500" y="212" />
              <mxPoint x="500" y="189" />
            </Array>
            <mxPoint x="391.1399999999999" y="463.02" as="sourcePoint" />
          </mxGeometry>
        </mxCell>
        <mxCell id="1e3A0mVhbscutXm83VHQ-1" value="XML_IN" style="image;aspect=fixed;html=1;points=[];align=center;fontSize=12;image=img/lib/azure2/general/Folder_Blank.svg;" vertex="1" parent="yMU-ZAaQUFapcs6r5aY3-3">
          <mxGeometry x="40" y="40" width="69" height="56.00000000000001" as="geometry" />
        </mxCell>
        <mxCell id="1e3A0mVhbscutXm83VHQ-2" value="XML_OUT/DEU_IN" style="image;aspect=fixed;html=1;points=[];align=center;fontSize=12;image=img/lib/azure2/general/Folder_Blank.svg;" vertex="1" parent="yMU-ZAaQUFapcs6r5aY3-3">
          <mxGeometry x="319" y="32" width="69" height="56.00000000000001" as="geometry" />
        </mxCell>
        <mxCell id="1e3A0mVhbscutXm83VHQ-4" value="Data Exchanger" style="shape=image;verticalLabelPosition=bottom;labelBackgroundColor=default;verticalAlign=top;aspect=fixed;imageAspect=0;image=data:image/png,iVBORw0KGgoAAAANSUhEUgAAAMgAAADICAYAAACtWK6eAAAAAW9yTlQBz6J3mgAAQy5JREFUeF7tvXecXGd97/9+Tpm+s31X2lVvllzkXnDFBlNiigm9BUISuEDKL+2m3l9uEhIgCa+QAlxTAjcJHUwxGGyKKbblbkuyuqy2klZabZ0+c8pz/3hmVrOz03dmtmjfr9dY8uyZ1cyZ8znf5/lWWGaZZZZZZpllllmmwYhKByxTGzd/73SlQ5rOw68aqHTIMlWyLJA6qUIIOuABvICZfQSB9uyf/uzPq8EBEkAciABRwMo+MkAasEu+mmXR1MuyQKqkjCA01AXfAwwCA8AqYB2wEugGOlDC8KOEYqAEpM36bcWRKAE4KFGkUCKZBMaBM8Bx4AQwDJwEzmWPKSqcZcFUx7JASlBGEF6gF1gLXA5cDGzIPnqBQPaY+Ti3aZR4xoGjwDFgP/AscAQlpESxFy4Lpjjz8SUuWEqIQqCsw0XAdcCV2cdKlGWo1grMJ1PAKLALeAZ4EngeGEFZpBksi+U8F7xASojCQC2TrgJuAm4GNqKWS0uBCGo59hjwS5RgjqKszwwudLFcsAIpIgyBsgo3Ai8DbgXWoPYNS5kMaun1KPBj4Geo/cyMvcuFKpQLTiBFhBFC7SXuAn4F2IzaR1yIWCjL8iPgPpSFGS886EISywUhkBLLqEHgDuANKKvRU+ygC5goar/yLeAHwGHAzT/gQhDKkhZIEWFowBbgV4HXoCyHr/CgZWZgA4eA+4GvozximfwDlrJQlqRAighDBy4F3oISx2aW6GdvMqdR1uQ/gSco2NQvRaEsuYukQBwCFaf4NdRSakOx1yxTM2eB7wFfQAllyVqUJSOQIlZjLfAu4J3AplkvaAEy7y/Tf2fm32sl/wsTYvZzLeYMcC/waVSMZfqjLRWRzOO5bQxFhNEHvB74LeAKWvQZJSDl+b/rAjyawKsLAoYgaAhCpkbAEPh0gUcTmJpAr+Ld2RIsV5J2JAlbErNdYpYkZrmkHEnaldju+Q8qRIs+9HmOopZd/wW8kP+DxS6UFp/HxlIgDi9wJ/C7wG1UnwhYFzlBSMDUoM3U6PRo9Pt11oQMVvp1un06nR6NTq9Gm6nh0UAXShSaACFEVV+ABFwpcSU4EmxXCWU87TCWdhlNuwwnbI5Gbc4kHcbTLjHLxZbqC26RYCRqA/9J4Buo6D2wuEXSgvPWeIpYjW3AB4G3Al2zXtAA8gXh0aDdo7E6aLCl3WRtyGBTm0GfXydoaPiN6i78RpOzLsMJh0MRiyNRm/2TFsNJh6jl4sqsMCv9ormRQnm8/hl4hEW+7GryuWo8BeIIobxSfwRcVvQFcyAnCiHArwsGAjpbO0wu7fCwtcOk36/TZmoL9iQ6EiYzDidiDrvGM+yeyHAoYjGZcdWSrLliGUJZk/9A5XxNs5iE0sTz01hKWI0/BN6MEkrDyFkKv6FEcVW3l6u6PWxpN+nxahjaojltM4jbkhMxm53jGR4/l54WS+4m0IRPZaGi8h9BWZPpQONiEUkTzknjKRCHD7UJ/zPgkqIvqIOctTA06PHpXN3t4cY+H5d0mnR59ao204uJuC05GrV4dCTNjpE0x2M2aUc2SyingH8DPkNe6spiEEkTzkVjKRDHauAPgPcA4aIvqJGcMHy6YHPY5OZ+Lzf2+1gd1DEXqaWoBQmcSzk8NZrmZ8Mpnp+wmMq4zRBKBvgu8CFgZ+7JhS6SBp+DxlFkSXU98LfAS2hADYbyDEHIEFzW5eElA36u6/HQ49MrvXTJErMkz09kePB0kifPpRlPN0Uou4G/QonFyT25UIXS4M/eGIq4b98C/Dkqj2pO5CxG2BRc3ePlzkE/V3d7CZmNPRW2C2lXkrRdxtMuExmXqKXiF0lHknJcLBccKbFmpADOxMy6hr2awJ+Np4Q9yqXc49MJGSrW0khrl3YkeyctHjyVZMdIitG0eoON+xc4B/wr8AlgIvfkQhRJAz9zYygQRydqSfU7qJruOeFKtfG+usfLq1f7uarbS8CY+ylwJcRtl7GUy8mEzbGozVDcYSTlMJ52mMpIko7yHNlS4kj1Gkl1X0DuOF2AIcDIBiDbPRrdXhV7WRcy2NBmsiqo0+3VG/K5LFcJ5ftDCR45m2aysUsvC/gKypoczT250ETSoM/aGArEsQ74O+CNqEYHdeNmN9/bOjzcvSbAzf1eQubcVmkJWzKSctg/aXFgyuJw1GIoZpOwJSlHTgfpgOmUEGjMCc8FFvIj94YAnyFoMzU2tBlcFDa5pNPDprAxZydD2pHsHM/wzWNxnh7NkHQkDTRYPwP+BJXTBSwskTTuY86RAnFcBfwDar9RN7kLaSCg8+rVAV65yj+nPUbO87NzPMNz4xkOR2ymMi5pR/1L850bJbP/cVGbtIAp6PfpXN7l4cpuD5d1euj21S+WmOXyi7Np7j0W5+CUhStnin8O7EWJ5Hu5JxaKSBrz8eZIgThejIrCXlHs2GpxJYRMwS39Pt64PsiWdrOuD5t2JMdiNs+MZXjiXJrD2diBm7UQDbpAmkJuvwXKSzcY1Lm6x8uLer1c1G7S7qnPig4nHO4bSvCDkwlGkg1bdp1E7TO/TLbcdyGIpAGfa27kiUMAdwMfRdVr1EXOamwOm7xtQ5BbVvjw1XHLHE+7PDuW5pdn0zw3lmEi47Qi+tw0cmIRQnnutrSb3LbCxw19PgYCes2fyZHw/ESGrx6Js+Ncmkxjll1jqGX1p8irNZlPocz9I82BPHHoqDyqj6BKYevClRAwBC8d8POWDUHWhoxKL5mBBE7FbR45m+ah4SSHo2pP0YL8pZaSE4uhweqgwa0rfNy+0seGNrPm5VfEcvn+UJJ7j8UZTjiNsKgx4B+BfyKvh9d8iWTuH6dOCsTxLuDvgf6SL6iAK2FV0ODtG4PcOejHX+M3fTJu86PTKR4aTnI8Zi9qa1ELuQTGFX6dW1b4ePmgn81hsyZrIIHdExn+63CMJ8+lZzgo6iSJEshHUe1WgfkRyRw/R33kicNAieMj1Nk0QaLcn9f0eHnP5jYu6azN4TWccPjx6SQPnlLCcLIXzIVGTih9fp2XDvh55So/a4NGTRZhMuPyzWNxvn08wXjanet5TKFiJR9CNZAAWi+S+l06dVJgOX4LZTnqEocrIWgIXr8uyPu3hWtaUo2nXb4/lOBTByL8dDjFWC5qPLcvddGS+9y5aPoT59LEbMmKgMpYrgafLri8y8v6NpPTCZtzqTkFGA3gGlSgeAfZDpAnvvSxcq9pOHW+9/oo2JC/DeWt6i35gjK4Ut3t3rExyKtWB/BWuaSyXMlj59J881iCXeMZ0o3ZXC45crGji9pNXrc2yK0rfARrCD4ej9l8/lCMnw0n57rkSqJWGP9AduPeSisyh/ddGwWu3NehzOeq4keXx5WwKWzwvq1hXtTrrfqufyJm881jcX50OsVUZs5LgAuCXPbBjX1e3rohxNaO6t3lEcvlG0fjfPNYginLrfp1RYgBfwP8C9kGEa0SyRzec/UUiOOlwD3MocPIFd0ePrg1zNaO6vYbKUfyszMpvnIkzgsRq+oUj2UUOa/XYEDntWsD/MqqAJ3e6pZdcVvyoecm+cWZ1FxvSJPAn6JS5l1ojUjm9paroEAc16EqzGqu45Co6PAtK3x8YFuYwUB126ehuM0XX4jzk9PJaZftMvXhSpU8eVWPl3dtCrG9y1P2AnIlfOdEgnv2R4jZshEX2zngt4Gv5Z5otkga8J5LUyCOzcBnUU2hayLnqXr5oJ/3XhSmx1f57uVI2DGS4vOHYhyYUh3+m/phLyBcCf1+nTetD3LXan/JTfxDwyn+ec8U4ym36mVwFRwBfgOVwwU0VySNe9tFyBNIH6qi7E2ljy6ORCXivXJVgPdtbaOjivSIuO3y7eMJvnIk3gh34zJFcCV4dcGtK7y8e3Mb6wo8iDvHM3x45xRDcbsZ5/9JVNHc87knmiWS6tYpdZAnDh/wl8CvU2OhU04cr1od4L1VimM46XDPgRjfPJYgZi0vqZqFEMpKH4na7Ju06PZpDAYMNAFHozYf3xvhUMRq1vnPjbp7iGwgsVnu36a8/QJ37m8BH6PGxgo5cbxmTYDfvKiNcBW++D0TGf7P/ijPjWeWN+ItxJXQ7dV484YgN/R6+dT+KI+dSzf7/LuoMMH/QrmCm2JFGv4ZCvYdtwOfR7UBrQkBvHKVnw9sC1fMOpXAjpE0n9oX4Ui0KSZ9mQpIqepR+n06JxM2rqz0ioYQQXW2+WzuiUaLpPJtuX7WoWrIaxYHwItX+njf1sricCU8cDLJP+2eWhbHPCKEcqcfi7VMHKAad/w5cHPuiRKzYOqmoQLJe3MBlM/6ptJHF8eVcG2Pl/dvDdNVwdduS8l9Qwn+fV+Es0lnWRzzjGBe8tjWA3+N2pM0nIYJpEC570B1Va8JV8K2DpMPXhxmZYU4R8aVfP1ognv2R5lY9lRd6NyOWmp5obFWpGECyeMa4I+pcc6fSlfXef/WNja2lU86tFzJN47G+cKhKJHllJFZyILHBYBAxUbuzj3RKJE0RCB5b6Yb1fGwpnkcEtUM+j1b2ri6x1v2WMuVfONYgv97OEbcko0MQC06JOrGknuA6nji0wUBXeDPjlkQecfJpauYdlRd+9ZKB9bCnC+vAqX+f6jMy/JXeR4SMAW8Y1OId20Kle1760j47okEnz4QJZppaHR20SA5f5EHDUGnV2Ol32AgqDMY0On06vizfbIkkqQtGU+7DMVtjsdsTiUcJrONJjSWZHr/PajrsCGZv9UXUFTmKlT/qqrFkeP2lX7etD5YVhwSeOBkgs8evDDFkROG3xCsDxlc2e3h8i4PG8MmbaaGVxeUy0a3JdNN7J6fyPDMmOrMMppStfZLaJn6VtS892+AuoHPRSRzEkie9QgCv0eNGbq5Tfm7t4QqFuU8NpLmswdjTF5gG/KcMNo9Gld1e7hjpZ/Luz10eWsbu2AINeSnzdRYGzJ42aCfobjDjpEUvziT4lDEXiq1MWHg91F9tk5UOLYidZ+OgqXVm1Fz6qpuKC0ldHo1/mR7Ozf3l5/EvH/S4iO7JjkUubDiHK5UVXrX9np47ZogV3R58NdQtFQt51IOO0bSfH8owf4paylYFAfVHeVvsn+v24rMyYJkGURZj6rFAapa7XVrA7yor7w4ziQdPrU/csGJQwLr2wzeuD7IS1b65twJshy9Pp3XrAlwQ5+XB04m+c6JBGeSTv13z/lHR+X+/QB4rMKxZanrrBfkWr0b1Xm9alwJV3V7uXttsGybmZjl8rmDUZ4Zy1ww4pCou/ct/T7+6soOXrsm0FRx5NPn03nHphB/fWUHt/T70MWidhOvRu2Jg1C/23euZ/5SVNpx1b9Hymwt+aZQ2Ui5I+HbxxP85HRqMX9JNSEBryZ43dogf3xZO5vD1VVMNhIBXNLp4U+2t/Om9UH8uljM5//VwMsqHVSOqi/sHHlKNFGZujVtzHUNXrPGzxVdnrLH7RhJ8dWjcTJOQyrRplmoX3ZOHG9aH+S9F7VVTLNpNh0ejd/Y0sY7NoUWs0jagPej4nN1WZG57EGuQ3VerxpXwuVdHl69OlB2yXQ8ZvOFQ7GGFjtJ1NzyHp/G2aTTyoS6qjAE3L02wK9tClW9EbclRHJzR2yJ7Uo8miBkCsJZj9Vczp9XF7xlfZC45fK1o3GcBXbOquQW4DWorPKaqUkgBUVQ7wFWlD56JhLlqnzrxlDZDutJR/LFF2Lsn2pssY0AXjLg48UrfHx095SanlTpRS1CAret8FctjjNJh2fGMuwaV1Nrx9MuGUdO71+8mqDXp7G1w+TyLi9XdHmqbrJQiFdXVm3PpMVzi3MvmLtWfwgM1xoXqUkgedwA3FXpoEJuX+njup7yS6ufnk7y0HCKRuJKuKzT5Nc3q6rETW0mj6fSCyLY6ErYHDZ41+ZQxdT+sbTLj08n+eHJJMdyQzcpEg2XSkS7Jiy+N5RkS9jklav83LbCR7iKqsxCenw6LxnwsWcis1ityHUoK3JPpQMLqfps5VkPLypbt+o+uq5ULWPuXhsoOyrsaNTmq0fjJBrTAQNQd+c2U/C2jSEGAmry0tU9ngVxJ5SoOMcb1gfZUCFB88CUxYd3TvKpfREOTlnYrkQXymIICh7Z53WhajR2jmf4+J4If7dziufGM3UtL6/o8tLp1RfrXsSDumb7oLa9SNUCyeMy4JWVDsrH0FTThU1lvDJpR/L1Y3GONrjoSUq4ttfLdb3nM2Au6/TQ4dHm/cuWErZ3ebilQqB090SGj+yaYsdIuubewQJ1fNqVPHw2xd88O8mXj8SYypQZjFiEDo9GmykWc7Lj1aiebDVRq0B01EDNqhdxaglh8vJBf1mr8MhImp+cTjb0opWoNfRNfTNnhKxrM1jfZszrl52zHi9f5S+7tDoVt/nE3igH57gnywllJOnw2QMxPrxriv3ZdkjVkHElNWpqoeEH3g50QPVWpCqB5P2yzcCryhw6C48u+JVVgbIFUKMph68fjROzGre0ytHu0dhW0IGxzdS4uMMzr3sQKZVQr+ouvSdzpGq8tmeycZtjIcCSkofPpPjQc5P88FSSTBVrrrNJh8jiTxK9Cbix0kH5VCWQPO6ihloPV8LGNoNbVpRO8JXAD04m2dvAiyBHbtxz4cZUAFd0eQgY8+vfv6zTQ4+39I3jZNzmF2fTde0ZypHbpxyN2nz8+Snu2R9lNDU9srwoHk1gaCzcQFJ1tKNCE1VXHlYUSN4v6UE1na66l5apqW6IvWXcukejNt8fSmA3yXzrQhS1ShvDBiv8+rwss3LLq0s7yw+q2T9lMdLEWntNQMyWfP1onL/fOcXuiUzJYze0GdzS71vsFgTUPqTqoqqKAsnjZmoYrOlK2BQ2uWVF6Q2o7Uq+N5TgVKJ5F0HCdrGK3IK7vDrbO8u7nJuJ3xAMBsp7rs4knOkJus1CoAT7+Lk0H3pukm8fT5Aq8m96dcHbN4a4tsc7LzeVBjJIDSGKagXiAV5LNvGrGgwN7ljpY4W/tPXYN2Xx0HCqaSdcCIhYkuHE7OWDLlSXeN98pFFIFcyrFLxLOJImGdZZaAJOxh0+sS/CJ/dFGE7OPmcDAZ3fuSTMFd2ehi/7WohAXcu9UHmZVfYbynvxBlTniKpQcQ+jrPWwXMkPTiY5l2zI4MeiCFSf3kOR4t6aSzs99M/DMkuimqx5KpjNoCGqvoM1Ak2oTIZvH0/woecmeXJ09v5nfcjgDy5t55peZX1bfOoaxcWoYHdFqj3/d1DD9Fkh4KZ+b9klxOGIzY6RdMmfNwrbZXqSVCE9Pp0ry3iR5pt+v1715KxGkVtyPTeW4e93TvGVI3Ei1kw7tqHN4I8vbef2lT4MsShFEgJeQRX76ZICKSinfRlVpqVIoMur8eKVvpL7CkfCg6eaZz3y/10B7J6wOFVkmWUIuKHPS7DF3iwBJG1JusI6ZXPYpMentdzCwfmYyWcORvnwzin2FGzgVwUNfv/Sdn51XRCv1trz1yDuQNWMlF1mVWNBNqFyWapCStje6WFjW+mo+bGYzaMjja/zkIBfF9y2wk/YVJFyIWA07fD4ueLW6tJODxvCZmsvQqECbxPp8juMVUHlSGjlW8tHE2op/IszKf7muUnuPa465ufo9Gj85pY23rQ+OD97ubmxlioK/aoRyC1UOWhTorwdN/fPjFwXHvPwmRTDzfBcSRUE/LVNQV695nxKvePCo2dTs5YKoL7kW/u9ysffQpK25FTcLnuMRxPcOagi7fN18QnyNvB7I3xk1yR7JjLT7ydgCN61OcQb1wXxLC5L4kdZkbJVaZUuCz9wG9Uur6S665Vb14+lXX5xNtWUrFAXVce9Kmhw99oAG9oMXKmsyIGIxc7x4n7+G/t9DAaMlnlmBCqJcFcV2bFXdHm4rYyzo1Xk8rkeGk7xv56Z5PMHY9OeLp8ueMemIHes9DU8E6LJXEeFpNuiAslbk60Frix2TDGEgGt6vGXrPZ4eTXM0ajdl7yFQ63afLljh13npgB9dZL1ZluRHp5Iki1yRa4NG2T1Ts9g1nmGkiDs1H68uePOGIJvaWifgUuSsyUjS4QuHo/zFUxN85UicM0mHoKHxa5tCrA7O//usgY1kY3ul9iGVLMiVVOm9kii35HU93pKNGFKO5JdnUtN1DI1Eosz9xZ3nLeaLV/hYn2dFnh5VRUaFCAF3DvgZDOgt+3I1ASfiDk+MVvbkrQsZvGeLKsNt6V6pBEKo1cKBKYtP7Y/wZ09N8On9Uc4kHba2t76Ofg60UWF/XU4gAtWIuir7LqX6IjeXOUHHYza7JzJNsR65Plub8pwDq4IGd60O4MkqdjLjcv9QcSuyrs3g5YMB9Eq3jAaScSQPnkoyXmGzDnBTv493bgoRMBfOOl8TKuZ1cMriPw/H+KtnJ9lxLt1ySzxHXoTK0SpKucuhE7i2zM9ncWmnp2yzgSdH00w0qdRVAhvaTDoK/v07B/1c2eVBZq3IE6NpnhktYkWAV6zys63dbKkV2Ttp8ZPTyUqHogt47ZoAb9sQWnAeI02ocxu1VH38ImMzZQqpZl3NeQetQA0nqUhueXVld+m52VHL5clz6Yqb0nrRhGpj6i9Y33V6NN6+KUivTwOpmhx841i86F17ZUDnzRtCqjBo1k+bQ8aRfPN4gufLJArm8OqCt2wI8rYNQZWJ3Ko3WSUi+1hk9KAi60UpZ0G2Al1lfj6NlCoqXa5i8FjM5nCkOZtziYp/bAgVd7Zd1eXlzRtCeHSBEPDcWJr7hxJFL7Bb+r3ctTpQcXPWKDQBJ2M2nzsYq7hhh5zHKMR7L2qj06u1zNotYYKoasOilLsOrqDKITgS5T3qLFMZt3M8Q9RqzvIKqQqjStV1CwGvXhOYdkNmXPjW8QS7ity1TU3dpa/qaV1CnnIgpPncwVhVSxSPpprL/cGl7awLLSqv0UJlKyqkMYtSV7QP2FLiZ7MwBFzSaZbMG0rYkl3jGewmfZESWOHXy5auhgzBr29pm47RnEk6fP5QjHNFCoV6fTrvvSg8HUdpBS7wwKlE1SLRheoS8xdXdHBDn3extwmdbzZTYrVU6orqoMrKQQmETI2NZZZXw0lbTaAtecTcGQhUTuwbDOi8f2uYjWFlaZ4ZTfNfh2NF6x8u7jD5wLYwAy1y/QpUI7jvHI/ziX3RosItxsUdJn9+eQfv2Biiw7O85KqTVZTIyyp1zQ6gXlQRKdXde22wdHDw0JTNWLp59cyaUC7dci2FcmzrMPngtjCDQR1bwv0nk3zreKKo8+BFfV4+sK2NHl9rLjwBWBLuH0rwj7unOBotn4qSo9ur8e4tIf5sezuXd3mm4xTLVE0INbZ8FjOu6jz1XI/qXlIxF9wFruz2cOegH72IAiRw/1CSneONrznPYWRzlqpt9rwqaNDv19kzaTGRVvUiPV6djWFz1h5pXZtJr09n/6RFtAUzEXO/fijusGfCosOrsSqgo1X4hzUhWBMyuK7Xi08XnEo4xC0JYlF6llqNATwNPAxw4ksfm/5BKQsySJUBQl3AhrBZsvgnarkcjFhN+5Ikag8UNmv7F25d4eN3LlZLqPG0y6cPRHnk7OyOjgJ4yYCfP7isvaV7EoGKVP/Drik+fSBatCqyGL0+nfdsbuOvr+zgJQM+gobAlcv7kyrYTBGDUMzto6HiHxWLSabdq2W6Ak5m3KYPYzGEwF9HOu5tK3yYAj65P8qRqM0n9kXRhODGvpldWARwU5+XDk87nz0Q4+nRNC7NvzNrAqYsl68cifPceIa71wa5pd9bcVydJlRDuk1hk8fPpbnvRIKd4xlSjrKAzX7fi5RVKKMww7U5QwRr3vaHZA96N3AJVRD2aLxxfZCuEu1r9k5aPHAqSdbaNwWfLnj5oJ/+MvXvxRDAmpDBprDJiZjNwYjNnokMfT6dtW3GrPfb59O5qseDJVXaTMahZUuukaTLU6NpDkcsgqZGj0+vuOcyNcH6NoMb+rysDhnELJeJtIuVVXeT3/piIwp8GUjkL7GKCSSE6oa9jgpICauDBnevDc6KYOf4xZkUO0bSTf0yhFCb7y11Jsqt8Otc0unhbMph35TFrgmLTo/G+rbZbXmChsaV3R66vDpHozaRFuxLQH1GW8KJmMMT59Ici9kEDUG3Ty87HRjUDWRz2OSGPh+rgjoxWxVr2ctCyccCvghMVhJIGHgfVTSndlGdQV6y0l/0S3Ik/PBUkv2Tc2ubWQ6BunCORm3WhFQtSD10etWF70h4fiLDk+cyeDR1YRV+NkMTbG032dpuMpZ2GU46OLI11kQIVZfxQsRmx7k0h6MWXk2j26tPJ2WWwm8ItrSb3NjnY3VQZ8qSTGaUUJr93hcBDvBd4GQlgXShpvJ0UAEJXN/r5cb+4oUySSfb9yrenNrzHAKYykj2TGbo9+usCRp1/Xs569Dn1zkcsfnl2RRxW3JRu1m0QrLfr3Ndj5eAoXEq4RBtkdcoXyhHozY7zqXYO6k6t3R4VQf7cuQLZTCgE7clY+kLXigu8ABwoJJA1qGWWBV7YGlCeYO2lxinNp52+dbxBJMt6OkqhBLJ7gkLb9ZxUGnpUQxDUxfP9i4PkYzkp8NJjsdtNrWZRSP1fkOwvcvDtg6TmC05m3SwWnSh5YSScZVb+PHRNLsnMmRc6PFpBCs4LvyG4KJ2tfTq9ytv3kTanc58vgB5ANi15m1/OO3qLSaQbagu2GXdvBKVE/TyQX/JKPpQ3OG+oQRpt/EFUsUQAmKWZOdEhqgl2dhmEKjDuwXQ7dW5rtfLyoDBk+fSPDqSpt+nM1hkCSeE2sdc3+tlIGgwlnIYz7gtWXbBeaHYUnVjfHI0zXPjGTKupNenVyWUbR0m1/Z6CZgqhhJrkTVcQAjgJ8CTQFmBbAfeRBVBwoCh8do1AVaU6Nx+OGLzk+GkuqMWPaLxCAGWC/smLQ5FbXp8Gv1+o649kKkJNoVNru/1YkvJz8+kyTiSwRJRe092M3x9ryo7jlouEUtO9x1utlhyQpEor9fTo2l2jqsCtX6/XrKRRo42U+PKLi/bOkzVkTLp4LTIGi4ABPAQsAPKC+RyVJPqii6hkCm4e22wZAvN5ycsfnk23fK0h9z3eSru8PRominLZSBgEK5z3njI1Nje5eGSDg9TliTpSLq8WtHMgdzxl3Z6uL7Xy/o2A10IEo5LypHnEzYLXpr/vxVPV6kD8n6JlieUp0YzHIxYtJmqVr/U+4bz1vCaHi8hU3AkZquJXxeGSH4J/ALOC6SYy8dL5Vp1kGAKUXZDGMm4OC0IPQvU3iFTsJTTBIymXb70QpzHR9K8dm2Q21b46h6xvDKgszKgk3ElRhVXTL9f51dWBbhjpZ9TCYedY2kORWyORC3OJh0yrmrg7RREunOWQEN9Bk0IVbWX/X/15+x/35ESy1XTunIJmLnN/I6RNHsnLV65ys8b1wfL9kwGNVHq7RtDbGgzuWd/hBeidstWAfPILD0UE4igihWRRK1dywWrJi236RFniaq0u3tNgBei9qwod+7PQxGbf90b4cenk7x6dYDr+7xl61fKUamnbiE+XbCxzWBjm4EtIWG5TGZcJjIuMcsl6cgZ4x90oQTv0QSmrhpdm5rAo6lln6EJDMGMZaOUymuYy1w4OGWxf8riSNSeHnwTyY5z3jdp8e7NqlN7OZ0L4MY+L93eDj6xL8IzY5mmfpcLgFmrpvqCBll8uijZwcSRyoK0wiOiC7iu18ubNwT56tE4PxhKTnvOcv+0JtTd+rmxDAemLC7p8HDnoI8besu3KWo0hlDZB2GPxppKB9fBWtQa+c4BP1HL5cCUxc/PpHh0JK0qFoUqXvvIrineuSnEXav9FQV/UbvJH17azsf3RHhytLlB33lm1oVQag/ymmIH5yNRWbF3DvqL1mHYUvKz4RSHGzyUsxheTXDHgMrmvarbw8awSdx2OZd0Z7lcc96e0wmHJ0czPDueYcpyCRgaYVNr+nttFUKoG9hg0OD6Xi/bu1QL01MJB9tVg3N2TmTKxnny6fCouevHYjbDTc6tm0ceAX4M5fcgVePVRck0bFdS1ey7RuCiPFegliY39nm5pMPk52dS3D+U5EDEIpOXqCfIebskeyYs9k1afPdEgut7vdy6wse2dpNQnRv6hYihCS7tVMmL27s8/OfhGKfjDonsdKnJjMv/2NpGd5lxcKDaOv3OxWE+vHOKA3McKrpYmJNAjLwlTCESmtbBpBDbhVhBmWq7R+M1awLc1O/j4TMpHjyd5OCUNT2DPafr3Jd8Ku7wrUSCH59Osa1dTca6rteb9fqwJPDpgletDtDv1/m3vRGORGxs4IGTSWwXfvviMN0VHBibwybv29rGh3dOMppqfgB4vpmTQFp0/ZdFoCxBqRLVbq/Ga9cGePFKH8+NZ/jlmRTPjmUYSysvUk4sOaFELZfHz6V5ZizNyoDOtT1ebu73sa3DrJhmvli4tsfL714c5qO7pjidcHAF/OR0ElOD394WnjX0tJDrer28dWOIe/ZHZ3kOlxpzEshCwZUqam+7smR6SbtH47YVPm7s8zIUd3h+IsPTo2kOTFmMpl2StkSiXKu5fcqJmMOJWIIHTyVVALDPyw29XtaEjIob24XONT1e3rU5xL/ujZCw1ai3B08lCZsav3VRW9n6fgHctTrA3okMPxmeXWS2lJiTQCpdIq20MCfjNilHEqpw4ZqaytPa0Gbw8kE/Y2nl6Tk4ZXEoYnEibhOzJAnbJZP9ABFL8uRommfHM3zzWIIruzzc1O/lim4vXV6t4nlYqLxkwM8zYxkePJVEoG4K3z2RYG2bwatXl+/4FDIEb94QYt+k1dQhrPPNnARSGODKR0DL1u4C1cZnMuPWtLn26oKBgM5AQOf2lT4StoojjKQcTsZtTsUdxtMukxmVqRu3XRK2EsvuiQwbwylu7VfZzB11xlTmE392T/LYSJpItmdZ3JZ86YU4m9pMtnWUT6bY1m7yilV+vnAo1tKbYSuZk0BSjsSVkmK2RBO1B9TqRsBUxuVI1K67HgRUd/iAoQRzRTZD2XbBkhLLkaRcScZR0WoJuFJOB/QWKxe1KyE8NpKe3osNxW2+cjTGn1zWUTZTQgjV+/gnp1McizXfnd8CZm1ki932XKpcHWUcWbKJgSYE/gp1CY1CoKLIx2LVtcmpBUNTd9qwR6PPp7MqaLA+u0TbFDZZFzIq1l8sZIKG4JIOc5Y36tGzaR4u0sSikFXzNFulScwah1xMIBmobjx3ypElXbm6UNmhrTpxroRDEavoNNtlyrM6aMwYnyZQ3TC/e0LV8pRDoJpf9M3DOO0mUJVAUlQhkNxd2y5xVgTQ4REt28AKVNltrFn9TZcwbaZG4dZNCNg/ZfFUFQN+1oaMeR022kBmmcxiAolQREmzECr+kCxzQYZNjVatPoRQFYyVBmMuM5tia+qcFfl5diJYOby64PpeL169dWMjmoALJAqfLCaQcQp6A5XCdik6OTZHu0fD0Fpz0gQqml5qUOcypRlLOSoVp+B5DVXTc7KKpnWXdJoqCt+KL7s52EAM4OFXDUw/WUoglUceoeoMRlOlBdLh0Vrq4XGkajN0poo5G8soJHAiblPsPieEavy3t4rhPn0+na0dZuW1+cLFQq2eZlBqkz5V5PkZCJQXa6RMF/JOj6amNbXorqIJ1a7znv1RjjfBo7UUmcq4PD9RekWddiT7pqyKeXVeXbCxSB+xRUQaOFv4ZLGgQQZlRSriSMoOoAx7NHr9OkPx1t3RJfDj00kORyxeOuDn+j4v60JGxXTuC5XdExleiFolkw4FqjQg5UiCFTaUG9oM/LogWWS5tgiIA2cKnywmkDQwUuT5WUhgNOVgubJoZaFPF/T79HlZlh6J2nzuUJRvn0hwcYfJ9k4Pl3d7GAzoSybpcK7ELDX1N27Jsnf+8bRDwnYJGuXT4VcHVUyo2BThRcAYSiQzKCWQoSLPzyJ3d0k6xQViaoKVAX1e7iaaUGWo51IODw07/OJMii6vxpqsS3JLu8n6NoMer45fF0s+bbsYPz6dUhWCZT67QKWfxCxJb4V+/+0ejZCpLdY0+LMUcfMWE4gLHEWF3cveMgQqB2oq45bsGLI+pKrVWtUbqxDB+ZywsbTLaCrDM6MZ/Iagx6uxKmiwLmSwMWyyOqjT59MJmRo+XSzm9XRF9k9ZfO1onKRd3nogVKlyNcVvpqb2nccqHbgwOYUyDjMolbh0EqWm8t0VBSRtl7NJh9UlcqBWh3SCpiCdrnyCm42A6TtbypGcjDuciDvsGEnj1QU+XRA2NVYFVfeSHq9On19npV+n06sRNM43TPDoizcH63TC4Z79UU40OH/K1AQdHm1eltQN4BBFwhszruqHXzWQmzI1hGoHX1YgAnWhHY85XNNT/Jhur7rQxubJ7EpmjyMTuf+I8268TDYRcSrjciIbbBSou6JPV11FvLq6ALa0m7xqdYCLK2S7LkSGEw7/vi/CUxWWVtNIlXRajZPD0ERN2dQLiCRwpNgPSlmQ0yiRrCjx82kyLhyOWNiSolHzNlPVX+yfqhycbzQS1QRtMKCTyvaKSjtKDJarmrg52b5ULnKGkAQq4dLUlAszbGoMBg0u7TS5utvLhnD9WcPzxdGozb/vi/DEucrpIzkkqhFeNY4NXVCVkBYgceB4sR+U+pYnUYq6tsTPpxGoQFPCLr4PMTXV9/XBU8mWm14pVZ7Qn21vx6MLbDdrKVxJ2pHThVEJJyuYPI+1LlTfr3ZTp8ur2vQEjerupAsNKeHJ0TSfORBl32Rpl24xJKpsuZrPrW4qlY5akJzMPmZE0aG0QFLAwRI/m4EQak17JuEQbi9+l9kUNgl7NNWrqugRzUEI5e6dyLhVD/hcakQtl+8NJfna0Tgjydor/wSwKli5ry+ojGqris38AuQgJWJ/5ezmcxRJ3ipEoNIRjpQZWbw2ZLA6aLQsop5DoPKMHj1b/ZJiqeBINQjoH3dP8ZkD0brEIVHLy20dnqpe60hJYnFmU++nRHpVOYHso8qIetqR7J+yShZPhU2Niztmj1huBY6En51JlU2JWWoMxW0+cyDK/3pmkp8Op8i4FVy5pZDQ5dXYWuVoOyubvFrPPzWPxIGnSv1wlkDy1mBnKLGzL0QAeyczJTN7NaFmqfuN1mT25qMJOBq1+PkS774hpWpc8V+HY/zZUxN88YUY57IdEOu9YCVwRZeHgRLjLQqxXOUFXGSMoixIUcpZkEmyw0QqIYRyH55OlF5mbQmbrAzMT9WZ5cL9J5OcriJte7Hy0HCSP396gs8ejHI0u9ytZTNeiETV6N+ywldxmm6OzOIUyEGySYqFG3QoLxCJEkjFW69AZYWWq8Xo8elc1T1z/nir0AS8ELG4byjB4lwiV2bXhGpd5MrGeJKkhMs6PVzVXXGO0jQTaXcxzhJ5lCJp7jkqObefpcq8LFuqruGlKgw1oQZ+hszWL7NAeVh+MJTgubGluWFX4xAac2Wq2IfgNWsCVcU/cgzF7cW2SY9SYZVU9NPnmZohlDerIqoWw56OQhdjW4fqAjIfyywh4FzK5YsvxMum6C9WGt1B5pZ+H9f31Wbxj8Vs0osr1f0FYCcUX15BZQuSBH6OKkcsi0ClRT9XZpnV4dG4qX/+WsRoAp4ZS3Pv8fiSW2r1+nQa0bvOlaqu4y0bgviriH3kyLiSEzF7sVUUPk6RGpB8qjmlD1NlfYjtwuMjaeJlrr4X9Xnp883PZh2U2/dbxxL8bLiqquJFw5qggd+YW6KgK9VN7N2bQ2yqMbA6kXY5FFlUY9qSqFkgZW/+1QjkMEppFRFClbweipTOu1oXMrimtzbT3UgEKrD5uYOxJdXgYSCo0+vT6r7xSKmayL1zU4jbVvgrHT6LI1Gb0bSzmDboR4EnKh1UUiB5a7I48COqXGZNWS6Pnk2V/KJMTXDHSh/heUyL1gSciNl8al+kKd0Y54Nub/1eQleq3ljv3hziV9cFau6pLIHnxjPTs1cWCQ+hakBK7j+gOgsC8FOyyVyVkBJ2jKTLRq4v7fSokWDzpRCUSJ6ftPjkvghnl0AXFF3ASwd8rAjoJTMaCpEocawK6vz2xW28cX2wrhqXqYzL7vHMvH6fNRIDfkiRXryFlBVInrKOohRXEU3AyYRTNqU6aAjuHPARmIfIej4CeGwkzSf3RZdEKsrFHR7esj5I0BBlRSLleatx56Cf/31lJ3etDlQdECzkwJTF0Zi9mJZXz1PltqFiDkF2sGfu6nkVUDFypNLK4aZ+b8lBLD0+nT2TFqfi879uPRazOZN0uLTLQ9Co1qguPISAze0mYVNjKG4Ttc73Ts51TzQ1WBHQuWWFj9+8qI3XrwuysspUkmK4Eu49luCZscy8eSdrRAKfAh6A8ssrqG38wSOomMjNFY5DCJWbtXM8w839xSv9w6bGK1f5eX4iQ2qefecS1XBO1wQf2NpGv7/+C2a+8WiCu9cGuazLw+Pn0hycsohYEo8GAwGDTWGDbR0eVgf1upZThZxNOjxZRf/eBcRJ4PuVDspRUSB5ZbijwL3Ai6iimUPMkvzoVJJrerwlawle1Oflii4PO0aqLP9sIhJ46HSSlO3ygW1h1oYqnpoFiybUsM3NYZO0oyonBTSle8sTo2lOxRtb295kfkSZ5MRCal1P3I8qbq+IEPD0WIbdZdpWhk01YLNtntJPCpHAIyNpPrp7iueraLe5GPDqgqAhCBiNF8dUxuWh4RSLKD9xEvgG2eYMlZZXUKVA8n7RIeC7ZQ6dRqCCRz84mSzbHfzaHi839fsWjAdEADvHMvz9zil+Npyq2HLzQubxc2men8g0XHhN5BeorULVVCWQPFzga2T9x5UQAp44l2bPZOnAoU8XvH5dkP4FNIBFE3A8ZvOx56f48pHYYkvAawkRy+X+kwmSiyf2kQS+TDZztxrrAbULBGA38INKB8F5K/K9oQSpMrfirdk2Ono976ZJaEK9988fjPGveyOcbGF/4cXAw2fT7B6vrQHEPPMU8JNKBxVS9SWZp7gM8EWKdMIuhhAq1vD0aOk1vSbgrtV+Lu7wVB3kagVCqBEP9w8l+NDOSXaMpJeXXKh2rt85nph372MNZID/Bs5B9dYDahBIAY9Rw15kKuNy7/F42Wqzfr/O2zcG6fTOXwpKMQRq8757PMPf7ZzksweWRlCxXlwJ3xtKsn9q0cQ9oIbrtZCaBJKnvBTweWC49NHnEQKeHcvwszPlixOv7/XyilX+2t5Ui9CESnL80pEYf/vsJI+cTS3WFjdzYt9khu8PJWb0EFvgJIH/IJvWXov1gBoFUsCTqA17RQSq88m9x+KcLFNQZWqCN6wLcnGHuaCWWjkE6g76TNbL9an90bIFYkuNqOXy5SNxziRqbyE0j/wSuK/SQaWoOWR84ksfy6WfuKio5MuArrIvQlmRiYyLQHB1jwe9xO4uZGp0+3SeGUsv2PpmISDlSvZOWjw7msGW0O9f3PPSK+FI+NrROPcNJXGov1NKi5kC/oJsVWyt1gPmZkEA9gCfo4qsSFBr+QdPJXmyzIYd4LpeL29cH8TUF0YAsRi5C+SFqM0n90X5q2cn+OHJZNmhpouZnw2r7owZd9FszEHtOx6sdFA5arYgMMOKgOqddSOwuvQrFAI1W/1cyuGaHm/JTuCaUGWfwwmHI9GFXaUmhDKlwwmVk7Rv0sLQBD0+rWSi5mIil6f2yX1RzqXcxbS0GgL+iGxT6nqsB9QpEJghkiiqqOplQMWKHSFgJOlgaIIru70lT7hHF2wKq67wZ5PzMzqhFoRQnV1Oxh0eP5dm76SFI2V2rshcDfX8kHElPzyZ5P/sj3Kmjtal84gDfBz4CkrjnPjSx8odX5K6BQLkW5FjwHrgilLH5iNRXQA3tJklB++AGgI6GDDYOZEhklmY+5F8BEooloRTcYcnRjM8N55hMuMSNNTsjFJ7r4XGmaTDf78Q478PxxhPLyrLAarX1V+SndZcr/WABuy1spm+ANtRiWCbSx99HlfCpZ0mf3lFR1mRgJpa+y97IkykF74lKcSVYGjQ5dW5ssvDDX1eLu/y0O3VWYiGZTLj8sszKb5zIqEa0dGAi6S1TAK/Dnw798RcBDInCwIzrEgusn47VaTR5/pUJWy4usdbtpptbcjEowl2TWSw5OL6woRQFjNuSQ5HbR47l2bHSJojMZuUIzGEmjlizOMt2nLVOLqfnk7yuYMx7htKciapCtnm713VzX8AnyDrOJqLOKBBnz/PinQCnwbeUPro80jAqwnet1XVQ5d7M2lH8vlDMb56NI61uDwpM5AwnZTp0wW9PjXSbUvYZGuHyUDAoN2jqfT0sr+pfjKuJGpJRpIOB6Ysdk9k2DtpMZywsVwWqzAAngHeBhyAuYsDGnge8kRyNSprsqqllpTQ7dP40+0dvKhCJ7+YLfnMgSjfyTZ+a9ibnydyYpGopgtBQ9DuUZN31wQN+vw6PV6NPr9Oh0d5xUwtO3230P+dfc6WapScnf17Kjt3cTztMpn980zC5njcYSzlELVcMq56+TwasUYwCbwX+HruiUYIpOJSqA6eBj4C/CuVpuSi7lajKZd79kfp8WllJ0GFDMFvbAnhuJLvZRtRL+bvVMCMPVXMlkQth5Nxhx2k0YSysF49+9A4L5AS2JKsQNRIOctV4+Uy2b/nki1z/7aAmtv8LEBc4DPAd3JPNEIc0ODrK8+K+IGPAe8vffRMpITr+7z8z8vaK9aERywlqO8vAZFUQub9pdagqZj+T97/L01+DPwa2dzARokD5h5Jn0HeG0sCH0XlwVRFrrjqswejRCtEo8Omxvu2tvGaNQE82sKNtjcCkXsItQSq5ZGzELnHEuUI8L+pMnG2VubsxSokz6s1heqndRtq814RCRyL2kgEl3Z6ynp2vLrgsk4PtoRDEQvbnblcWeaCYAoV75hOZW+k9YAmCKQgDeUYqsTxdqqJsqMWk4ciFromuLjDLBtY82RFYmqCgxGLlLMskoWApCUWKxct/3eybXEbLQ5ogkBglkj2AW3A9VSxpBOoSPSBKYuAoXFRhQmrhia4pMOky6tzOKKapS2LZH7Iue1Dhka6+fUK30Zl6tZUY14rFS/Yesl7w2ngn4Bvlj56JgIVWPvCoRj3nUhULHM1NMFdqwP88WXtbGk3F0zzhwsJV0J7tgH2718apsdXfY/gOngc+P9RvdqaSlMsSI48K5JA5eRvB9aVOHwGQqjg4POTFkFTY3PYoNyIMQGsChpc2mkymnY5nbAXY5rEoiOngfVtBh+8OMyr1wTYGDYxNDWSrwlexsPA75I3Oq1Z1gOaLJCCpdY4sAu11FpR8kV55IvE1AQXtZffk4DKebq6x4spBEeiKp1jecnVHKRUeWa3rvDxe5eEuaZHZWcLYEObyWTG5cBU6ZZPdTAM/D6qMzvQXHFAkwUCs0RyBtV87iaqqEKE8yLZO5lBF0oklfKW/Lrgsi4PgwGDk3GH8WyziGWdNA5XqgyIt2wI8Ztb2hgIzIw5G5pgY5vJ0ZjNycY0KJ8A/py8FPZmiwNaIBCYJZKjqGKWm4D2ki/KQwjVLX7PpEXKkWztMCsWI+lCsKHN4IpuD0lHciruqJSKuX9RFzRSqhjLlT0efntbmFeuCpQcIBo0NdaFDHZPZBifWyZ2DPhbVJ5fQ5IQq6UlAoFZIjmAyv69hSrSUUDd/W0J+yYtxtIuW9rNkhWJ+XR4NK7t9dLv1zmTdJjIuK1yQy4pJEocvT6NN64P8r6tbWxpNyvmb/X4dDq8Ok+OpqdzvmokiUpd+hdq6KnbKFomEJglkj0os/kiahCJCxyO2ByN2qxrM+jxVf4IpibY0m5yZbcXXROcSjhqnruo6wu74HClGjN9S7+P928L84pVgapuTgAxy+XRkTS76tuwJ4F/Bv4x+/eWigNqfr+NIS9nSwfehUpL6Sn5giLkxhX/1kVt3FzDaGlbSp4ZzXDv8QRPj6rOKdW+9kIjV+y1JWzyunVBblvhI1hD55ahuM0XDsX46XCqnhKFJCo88FFUSXfLxQHzJBCYJZJ3osxof8kXFMGV0OXVeNvGIK9ZE6ip9jtmuTwykua7JxLsnbTIZL1d83ZCFhCuVBm+a0IGr1jl52UDfvpqGCokgadH03zmQJS9k1Y9S9oE58WRyD15QQkEZohEA96MOiEVu6PkI6XKy7p9pY93bgrVPPhmNOXw8Nk0D5xKcmDKIn0BC8WVoGtq5vodK328ZMDPmpBR07mIWi73n1QtgupsMBcB/gG1tJpXccACuA7yRAJwF+rkXFz86OLkglWbwibv2Bjk1hW+mseLjadddoyk+MnpFHsmM8QsOZ1Fu5TJbb69uvL6vXiljxev8DMY1Gu+OPZPWfz3CzEePZsm7dS1dD0L/A2q19r0XLf5EgcsAIHALJHcirp7XFX86NK4EsIewSsGA7xhfZDBOoZTRiyXXeMZHhpO8cxYhtGUgytZUlYlJwqB6hyzrcPk9pU+ru3xVqzFKUbMcvnR6RRfPxrneHbabR3nagj4E1Q725a6cstRx+doDgUiuRJlSV5a/OjS5Na7F7WbvH1jiBv7Sk/aLUfGlRzLNll45Gya4zGLmCXV76/vAphXcqKQqFr4lQGd63u93NTnZWuHp6bNdw6Jamb9xRfiPDaSJlWf1QDl0fyfqBF/wMIQByyw77lAJGtRwaG3AKXrcEvgSmgzBbet9POGdQE2hc26P+xkxuXglMVTo2meHc9wMmYTs1X5am4ZVu/vbiY5UYBy0/b6dC7rNLmmx8v2Lg99Pr3eC5qRlMP9Q0m+N5RgODGnDigPocTxVO6JhSIOqPszNY8CkXQAv5d9dBY7vhy5vclgQOcVqwK8YpWflXUsIXJIlFiORm32T1rsmshwLGoxnnaJ23LaeuX2La06ubnPmRODBDyaCpIOBAwu6/JwcYeaetvr08q2WKpExHL5xZkU3z2R4MCUhVN/dkIaNdTmb8m2B4WFJQ5o3XdYEwUiMYE3otKbLyr6ggrkvDObw2rU24tX+Oj0Vu8SLkXSkUykXY5ELY5EbY7HVABzLO2QciRJW41gziHy/6znzMs8MWT/FKgNtl8XtJmCwaDBhjaDdSGDLe0m/X6dcJVBvXIkbckTo2nuO5Hg2bHMXJZToDbj/wx8EtW6Flh44oD6vqaWUSCU61Aejjups47FlaoK8dIOk19ZHeCGPi+dnrp+VVGsbL+piYzLSNLhVMLmbNJhMuMylXGJWpKo5ZKwVacRN++CL4cm1Af26oKgKWgzNcKmRodHo9urMxjUGQjo9Hj16Z5ajSJhS54dS/ODk0meHE0r7179yylQZQ9/BXyfvKkAC1EcMKfP2RoKRLIKle78G1SZ6FgMV4LPUCW9Lxvwc0Ofl94qUlbqxXJVC56MK0k6krQjyWRb8TiuLCsSgcqM9WhKIL7sw9TUow7/Q1VELZdnxzI8cCrJM2MZIhl3rsLIAN8C/g41CBZYuMLIMYfP2zoKROIF7gb+lCqbZRcjt4HN+f9v7vdxS7+XNSFjTmv0xYwr4WzS4bFzaX5+JsXeyQzxuVsMgBOoZMPPo/LvgIUvDpjz524dBSIBtR/5I1QEvm3WC2rAlWoZ0+/Xuarbwy39Pi7p9NDVgH3KYiBmuxyasnl0JMVjI2mG4g1rQWoBDwAfBnaQt6JcDOKAOX/+1lMglCDwOpRQLi/6ghrIxQmChmBD2OTqbg/X9nrZ0GY0ZKO7kEg5kqG4zTNjGZ48l2bflEUk407fLBrACVTHkS+QHb+cY7GIAxahQKCkNfkg8FZqzAouRm75JYRqRLAxbLC9y8P2Tg8bwwZtplZzKst840iI2y6n4g67JjLsHM+o2pqUg50VRYM+URwV8Ps4i9Rq5NOgczI/FAjFg+q/9bvAHYCv2GtqJScWUIHHFQGDjW0G2zpUR/aBgE7Ys/AEkxPESFKNsdszaXFoyuJkwmYy7TZaFKBKdZ4C/g3VyC2S+8FiFEaOBp6f+aGINekEXg/8D1TKSsPWRjmxSMDUIGhodHs1NrQZrAoarA4arAkZ9Pi0aW9Ts4XjSrVcSjuSiOVyOuFwLGZzMq5iMicTNnFLdXmHhuwrivECain1f1E5VdMsZnFAU87V/FBEKGtQxVjvQI1iaPhnzReMIBuwMwRBQ9Dt1Vnh1+n1abR7dEKmej5oaAQNdVy14pEwHXiM2ypqH7NcIpZkIu0wnHAYSTlMZVwS2ePy02CgCR9eMYzqd/Zp4HkW+XKqGE06b/NHgVAEsBVVkPVmYEOx1zSS/CVZ7mrRBBhCNZLQNTCEil9UqQ9ALZkcCXZ2hIGdDTTm9/5qshjyOQt8DzXN6UmUt2qapSIOaMm5bD1FrIkOXAL8Kmr61TYauPSqFkljmMcv7QRwHyol/Qkglf/DpSSMHPN4rptPEaEAbES5hl+Pcg37ix20zDQ2qgvNfcBXUUspO/+ApSiMHEtaIPkUEcsA8GKURbkJ6Cs84AIngpoWdi+qk+ER1IpumqUsjBwXjEByFBFKENUz+K7sYxMQKjzoAiGF8kI9iEomfIy81JAcF4IwclxwAslRRCgC1TP4KuAVKKuymaUvljSqHuMxVFrIDpRILphlVDkuWIHkKLFPMVBiuRollFtQlqWbpXHOplCi2IEak/cEagM+3Sghx4UqjBxL4ctuGCXEIlDC2IzqTH9l9jGAqnhsXp58Y5Co/cQIqhbjOZRrdk/2uRmWApZFkc+yQEpQQiygUlp6UYHI7Sj38Ybsox/lFfMyD25klAVIAmOoJuFHgf0oURxBxS+SxV64LIriLAukSsoIRqD2Kd0oq5J79AMrgUFUAmUYJR4DJZ7coxokyoPkZB8pVKnqGCqafQplDYaB08BJ1PSlKHlVe/ksC6I6lgVSJ2UEk4+JEoUn+3cvEEAlUprZRzXfgZV9pFAWIJX9/0z277P2DoUsC6I+qvlylqmBKoXTNJaFsMwyyyyzzDLLLLPMAuf/ATRsNDu4OZNsAAAAAElFTkSuQmCC;" vertex="1" parent="yMU-ZAaQUFapcs6r5aY3-3">
          <mxGeometry x="311.65" y="172" width="83.7" height="83.7" as="geometry" />
        </mxCell>
        <mxCell id="1e3A0mVhbscutXm83VHQ-5" value="DEU_OUT" style="image;aspect=fixed;html=1;points=[];align=center;fontSize=12;image=img/lib/azure2/general/Folder_Blank.svg;" vertex="1" parent="yMU-ZAaQUFapcs6r5aY3-3">
          <mxGeometry x="319" y="342" width="69" height="56.00000000000001" as="geometry" />
        </mxCell>
        <mxCell id="1e3A0mVhbscutXm83VHQ-7" value="" style="endArrow=classic;startArrow=classic;html=1;rounded=0;entryX=0;entryY=0.714;entryDx=0;entryDy=0;entryPerimeter=0;" edge="1" parent="yMU-ZAaQUFapcs6r5aY3-3" source="yMU-ZAaQUFapcs6r5aY3-6" target="1e3A0mVhbscutXm83VHQ-2">
          <mxGeometry width="50" height="50" relative="1" as="geometry">
            <mxPoint x="265" y="62" as="sourcePoint" />
            <mxPoint x="335" y="62" as="targetPoint" />
          </mxGeometry>
        </mxCell>
        <mxCell id="1e3A0mVhbscutXm83VHQ-11" value="" style="sketch=0;outlineConnect=0;fontColor=#232F3E;gradientColor=none;fillColor=#DD344C;strokeColor=none;dashed=0;verticalLabelPosition=bottom;verticalAlign=top;align=center;html=1;fontSize=12;fontStyle=0;aspect=fixed;shape=mxgraph.aws4.email;" vertex="1" parent="yMU-ZAaQUFapcs6r5aY3-3">
          <mxGeometry x="35.5" y="412" width="78" height="69" as="geometry" />
        </mxCell>
        <mxCell id="1e3A0mVhbscutXm83VHQ-12" value="DSC OUT" style="image;aspect=fixed;html=1;points=[];align=center;fontSize=12;image=img/lib/azure2/general/Folder_Blank.svg;" vertex="1" parent="yMU-ZAaQUFapcs6r5aY3-3">
          <mxGeometry x="40" y="302" width="69" height="56.00000000000001" as="geometry" />
        </mxCell>
        <mxCell id="1e3A0mVhbscutXm83VHQ-13" value="" style="endArrow=classic;startArrow=classic;html=1;rounded=0;" edge="1" parent="yMU-ZAaQUFapcs6r5aY3-3" source="yMU-ZAaQUFapcs6r5aY3-11" target="1e3A0mVhbscutXm83VHQ-5">
          <mxGeometry width="50" height="50" relative="1" as="geometry">
            <mxPoint x="250" y="364" as="sourcePoint" />
            <mxPoint x="329" y="367" as="targetPoint" />
          </mxGeometry>
        </mxCell>
        <mxCell id="1e3A0mVhbscutXm83VHQ-14" value="" style="endArrow=classic;startArrow=classic;html=1;rounded=0;entryX=0;entryY=0.5;entryDx=0;entryDy=0;entryPerimeter=0;" edge="1" parent="yMU-ZAaQUFapcs6r5aY3-3" source="1e3A0mVhbscutXm83VHQ-12" target="yMU-ZAaQUFapcs6r5aY3-11">
          <mxGeometry width="50" height="50" relative="1" as="geometry">
            <mxPoint x="109" y="331" as="sourcePoint" />
            <mxPoint x="208" y="329" as="targetPoint" />
          </mxGeometry>
        </mxCell>
        <mxCell id="1e3A0mVhbscutXm83VHQ-15" value="" style="endArrow=classic;startArrow=classic;html=1;rounded=0;entryX=0;entryY=0.5;entryDx=0;entryDy=0;entryPerimeter=0;" edge="1" parent="yMU-ZAaQUFapcs6r5aY3-3" source="1e3A0mVhbscutXm83VHQ-11" target="yMU-ZAaQUFapcs6r5aY3-11">
          <mxGeometry width="50" height="50" relative="1" as="geometry">
            <mxPoint x="119" y="358" as="sourcePoint" />
            <mxPoint x="170" y="384" as="targetPoint" />
          </mxGeometry>
        </mxCell>
        <mxCell id="x4FNr3anz5mZ0z94SjzF-12" style="edgeStyle=orthogonalEdgeStyle;rounded=0;orthogonalLoop=1;jettySize=auto;html=1;startArrow=openThin;startFill=0;entryX=0;entryY=0.5;entryDx=0;entryDy=0;entryPerimeter=0;" parent="1" source="yMU-ZAaQUFapcs6r5aY3-2" edge="1">
          <mxGeometry relative="1" as="geometry">
            <mxPoint x="217" y="100" as="sourcePoint" />
            <mxPoint x="445" y="108" as="targetPoint" />
            <Array as="points">
              <mxPoint x="320" y="108" />
              <mxPoint x="320" y="108" />
            </Array>
          </mxGeometry>
        </mxCell>
        <mxCell id="Fcgo-apEPi93iQy3yleW-2" value="Cygnet Tax Tech" style="shape=image;verticalLabelPosition=bottom;labelBackgroundColor=#ffffff;verticalAlign=top;aspect=fixed;imageAspect=0;image=data:image/png,iVBORw0KGgoAAAANSUhEUgAAAHAAAABwCAYAAADG4PRLAAAFOklEQVR4Ae2dLVP0MBSF+ZsYDAqDwaAwGAwGhcFgMBgMBoPCYDAYPAaDwmDyznmHLJed9Gzb3DZJ92Rmp9km22TPc08/st10Jyg1rcBO071X54MANh4EAiiAjSvQePflQAFsXIHGuy8HCmDjCjTefTlQABtXoPHuy4EC2LgCjXdfDhTAOhV4f38P5+fn4fHxsc4OOvVqcQ78/v4ONzc3YXd3d/U6OTkJALrEtCiALy8v4eDgYAXOQkQeYAF4SWkRAD8+PsLZ2VknOAsSgAF6KalpgHDT3d1d2Nvb6wXPggRwgG89NQvw9fU1HB0dDQZnIQI8AqDl3WpzAD8/P8PFxUUWOAsReQQCAqLF1BTA+/v7sL+/7wrPwry8vAwIkJZSEwDf3t4CLgWs2FPlESAIlFZS1QC/vr7C1dXVLODWAwIBg8CpPVULECMo7JpuXfD4Hp/BGebt7e3/Ze4u9/r6OiCQak3VAcSIyenp6SjXAdz6MQzv+14jxiBYXyIonp6eqmRYDcA4BDbmmg6CY5fXdTmA9R7HUARCbUNyVQDcNAS27ojU+03HK5SnPjd0HQKspiG5ogA9dm8AAFG73Bf3eygf6+4U5MPDwyqG5IoAhJhjh8BSYuJEpU/KPaFJtY2frNaPu3364lVndoAeQ2ApITcdm1Ce+pzHOgQGArJEmg0gohQjHR6CpbaBbbM0ZduxPxiS23QsZn0cUzYLwKmHwKKAuPZLJayPdeZYIljmunacFCCi0eP0fYjouIbE7gy7aiznbj/2FbvVOW7nmAQgog8jGPHLbPMSAbTp+Jzaa/Rd5w5w7BDY0iHj2nGK3Wo2wDlODpYKt6/LWD0BNHevzR0oDEzfMgEUwOmu7eZ2xNzt9XUZqycHyoFy4FjnMmf1LZMDt92BNlIw+jE2Grfhc11DfVbDoflsB9oGBfD3DzWpgKweIEYaANG+2P0oGJ2wdW3++Pi4080YHLd1bZ7dCIX7Wmxdm08JHtfZejaP7cU660v0w9ZFfopb+V0daN0Y82ykhg32shubIEZXwi/l62LG90zAWCe17GoL20vVxzr0Y44kgD8qd4HA+q4kgOTfs3JgV9j8XS8H/ughB/4NjNU7HQNXUkySkQN/ZJUDO+JLDuwQxmm1HCgH8lCSA7k+uaVyoBzIY0gO5PrklsqBciCPITmQ65NbKgfKgTyG5ECuT26pHCgH8hiSA7k+uaVyoBzIY0gO5PrklsqBciCPITmQ65NbKgfKgTyG5ECuT26pHCgH8hiSA7k+uaVyoBzIY0gO5PrklsqBciCPITmQ65NbKgfKgTyG5ECuT26pHCgH8hiSA7k+uaVyoBzIY0gO5PrklsqBciCPITmQ65NbKgfKgb8xhD/9Yy4U+2LThWDKflvX5tlsE3C1rWvz7NECmEXY1rV59gdPW8/m2azE6IetizybXeNXxWE5Vweig0yIbS8DRO8kgDPOlVY1QEzszXaX2+4+fP8pZrJ3ceDDw4Prc4mWDhvHcK8J0LMAohNsLrSlg8j5fphLzeMpL6MBejwyLkeApXw291F2gwHiyWNodCkC1vA9ch4OMgggHmClExU+J+jYgMCzDZ+fnwdfZQwCqOu8aeBF6Di5GZoEcMbrwAiqaymAFcHogsTWC6AA8j1wak5sHBf18tFgzGPqBh0DOV6VllBAAEuo7timADqKWWJTAlhCdcc2BdBRzBKbEsASqju2KYCOYpbYlACWUN2xTQF0FLPEpgSwhOqObQqgo5glNiWAJVR3bFMAHcUssSkBLKG6Y5v/ANeJHdCbwqsjAAAAAElFTkSuQmCC;" parent="1" vertex="1">
          <mxGeometry x="1144" y="162" width="130" height="130" as="geometry" />
        </mxCell>
        <mxCell id="Fcgo-apEPi93iQy3yleW-3" value="" style="endArrow=classic;startArrow=classic;html=1;rounded=0;entryX=0;entryY=0.5;entryDx=0;entryDy=0;exitX=1;exitY=0.5;exitDx=0;exitDy=0;" parent="1" source="xUTsG6EXteNMuKocuy_s-10" target="Fcgo-apEPi93iQy3yleW-2" edge="1">
          <mxGeometry width="50" height="50" relative="1" as="geometry">
            <mxPoint x="1140" y="280" as="sourcePoint" />
            <mxPoint x="1190" y="230" as="targetPoint" />
          </mxGeometry>
        </mxCell>
      </root>
    </mxGraphModel>
  </diagram>
</mxfile>
